<svg width="24" height="24" viewBox="0 0 24 24" fill="none" xmlns="http://www.w3.org/2000/svg">
  <title>Shield 2 (outlined)</title>
  <g transform="matrix(
          1 0
          0 1
          2 1
        )"><path fill-rule="nonzero" clip-rule="nonzero" d="M 10 3.79998779296875 C 12.300000190734863 5.29998779296875 15 5.900012016296387 17 6.20001220703125 L 17 9 C 17 14.699999809265137 12.199999809265137 17.70001220703125 10 18.70001220703125 C 7.900000095367432 17.70001220703125 3 14.699999809265137 3 9 L 3 6.20001220703125 C 5 5.900012016296387 7.699999809265137 5.29998779296875 10 3.79998779296875 Z M 10 0 C 6.5 3.5 0 3.5 0 3.5 L 0 9 C 0 18.5 10 22 10 22 C 10 22 20 18.5 20 9 L 20 3.5 C 20 3.5 13.5 3.5 10 0 Z" fill="currentColor"/></g>
</svg>