<svg width="24" height="24" viewBox="0 0 24 24" fill="none" xmlns="http://www.w3.org/2000/svg">
  <title>Person group (outlined)</title>
  <g transform="matrix(
          1 0
          0 1
          1 2
        )"><path fill-rule="evenodd" clip-rule="evenodd" d="M 15 4 C 15 6.2091064453125 13.208984375 8 11 8 C 8.791015625 8 7 6.2091064453125 7 4 C 7 1.7908935546875 8.791015625 0 11 0 C 13.208984375 0 15 1.7908935546875 15 4 Z M 17 14 C 17 11.800048828125 15.2001953125 10 13 10 L 9 10 C 6.7998046875 10 5 11.800048828125 5 14 L 5 19 L 8 19 L 8 14 C 8 13.5 8.5 13 9 13 L 13 13 C 13.5 13 14 13.5 14 14 L 14 19 L 17 19 L 17 14 Z M 0 19 L 0 16 C 0 14.0999755859375 1.2998046875 12.5999755859375 3 12.0999755859375 L 3 19 L 0 19 Z M 19 19 L 19 12.0999755859375 C 20.7001953125 12.5999755859375 22 14.0999755859375 22 16 L 22 19 L 19 19 Z M 19 10 C 20.65673828125 10 22 8.6568603515625 22 7 C 22 5.3431396484375 20.65673828125 4 19 4 C 17.34326171875 4 16 5.3431396484375 16 7 C 16 8.6568603515625 17.34326171875 10 19 10 Z M 6 7 C 6 8.6568603515625 4.65673828125 10 3 10 C 1.34326171875 10 0 8.6568603515625 0 7 C 0 5.3431396484375 1.34326171875 4 3 4 C 4.65673828125 4 6 5.3431396484375 6 7 Z" fill="currentColor"/></g>
</svg>